<svg width="18" height="18" viewBox="0 0 18 18" fill="none" xmlns="http://www.w3.org/2000/svg">
<path d="M14.303 3.69739C13.0724 2.45877 11.4482 1.6883 9.71042 1.51883C7.97266 1.34935 6.23022 1.79148 4.78349 2.76899C3.33677 3.74651 2.27643 5.19815 1.78528 6.87365C1.29412 8.54916 1.40294 10.3435 2.09295 11.9474C2.16487 12.0965 2.18847 12.2643 2.16045 12.4274L1.50045 15.5999C1.47503 15.7215 1.48022 15.8476 1.51557 15.9667C1.55091 16.0858 1.6153 16.1943 1.70295 16.2824C1.77481 16.3537 1.86036 16.4098 1.95446 16.4472C2.04855 16.4845 2.14924 16.5025 2.25045 16.4999H2.40045L5.61046 15.8549C5.7736 15.8353 5.93904 15.8585 6.09046 15.9224C7.69433 16.6124 9.48869 16.7212 11.1642 16.2301C12.8397 15.7389 14.2913 14.6786 15.2689 13.2319C16.2464 11.7851 16.6885 10.0427 16.519 8.30493C16.3495 6.56717 15.5791 4.94298 14.3405 3.71239L14.303 3.69739ZM6.00045 9.7499C5.85212 9.7499 5.70711 9.70591 5.58378 9.6235C5.46044 9.54109 5.36431 9.42395 5.30755 9.28691C5.25078 9.14986 5.23593 8.99906 5.26487 8.85358C5.2938 8.70809 5.36524 8.57445 5.47012 8.46957C5.57501 8.36468 5.70865 8.29324 5.85414 8.26431C5.99962 8.23537 6.15042 8.25022 6.28747 8.30699C6.42451 8.36375 6.54165 8.45988 6.62406 8.58322C6.70647 8.70655 6.75045 8.85156 6.75045 8.9999C6.75045 9.19881 6.67144 9.38957 6.53078 9.53022C6.39013 9.67088 6.19937 9.7499 6.00045 9.7499ZM9.00045 9.7499C8.85212 9.7499 8.70711 9.70591 8.58378 9.6235C8.46044 9.54109 8.36431 9.42395 8.30755 9.28691C8.25078 9.14986 8.23593 8.99906 8.26487 8.85358C8.2938 8.70809 8.36524 8.57445 8.47013 8.46957C8.57501 8.36468 8.70865 8.29324 8.85414 8.26431C8.99962 8.23537 9.15042 8.25022 9.28747 8.30699C9.42451 8.36375 9.54165 8.45988 9.62406 8.58322C9.70647 8.70655 9.75045 8.85156 9.75045 8.9999C9.75045 9.19881 9.67144 9.38957 9.53078 9.53022C9.39013 9.67088 9.19937 9.7499 9.00045 9.7499ZM12.0005 9.7499C11.8521 9.7499 11.7071 9.70591 11.5838 9.6235C11.4604 9.54109 11.3643 9.42395 11.3075 9.28691C11.2508 9.14986 11.2359 8.99906 11.2649 8.85358C11.2938 8.70809 11.3652 8.57445 11.4701 8.46957C11.575 8.36468 11.7087 8.29324 11.8541 8.26431C11.9996 8.23537 12.1504 8.25022 12.2875 8.30699C12.4245 8.36375 12.5416 8.45988 12.6241 8.58322C12.7065 8.70655 12.7505 8.85156 12.7505 8.9999C12.7505 9.19881 12.6714 9.38957 12.5308 9.53022C12.3901 9.67088 12.1994 9.7499 12.0005 9.7499Z" fill="#333333"/>
</svg>
