<svg width="16" height="16" viewBox="0 0 16 16" fill="none" xmlns="http://www.w3.org/2000/svg">
<path d="M10.667 9.33342H11.667V11.2134L13.2937 12.1534L12.7937 13.0201L10.667 11.7934V9.33342ZM11.3337 8.00008C10.4496 8.00008 9.60176 8.35127 8.97664 8.97639C8.35152 9.60151 8.00033 10.4494 8.00033 11.3334C8.00033 12.2175 8.35152 13.0653 8.97664 13.6904C9.60176 14.3156 10.4496 14.6667 11.3337 14.6667C12.2177 14.6667 13.0656 14.3156 13.6907 13.6904C14.3158 13.0653 14.667 12.2175 14.667 11.3334C14.667 10.4494 14.3158 9.60151 13.6907 8.97639C13.0656 8.35127 12.2177 8.00008 11.3337 8.00008ZM11.3337 6.66675C12.5713 6.66675 13.7583 7.15841 14.6335 8.03358C15.5087 8.90875 16.0003 10.0957 16.0003 11.3334C16.0003 12.5711 15.5087 13.7581 14.6335 14.6332C13.7583 15.5084 12.5713 16.0001 11.3337 16.0001C9.47366 16.0001 7.86699 14.9067 7.11366 13.3334H0.666992V11.3334C0.666992 9.56008 4.22033 8.66675 6.00033 8.66675C6.40033 8.66675 6.89366 8.71341 7.41366 8.80008C7.83642 8.14493 8.41681 7.60634 9.10167 7.23363C9.78652 6.86091 10.554 6.666 11.3337 6.66675ZM6.66699 11.3334C6.66699 10.8667 6.73366 10.4134 6.86033 10.0001C6.58033 9.95341 6.28699 9.93341 6.00033 9.93341C4.02033 9.93341 1.93366 10.9067 1.93366 11.3334V12.0667H6.72699C6.68772 11.8243 6.66766 11.5791 6.66699 11.3334ZM6.00033 2.66675C6.70757 2.66675 7.38585 2.9477 7.88594 3.4478C8.38604 3.94789 8.66699 4.62617 8.66699 5.33341C8.66699 6.04066 8.38604 6.71894 7.88594 7.21903C7.38585 7.71913 6.70757 8.00008 6.00033 8.00008C5.29308 8.00008 4.6148 7.71913 4.11471 7.21903C3.61461 6.71894 3.33366 6.04066 3.33366 5.33341C3.33366 4.62617 3.61461 3.94789 4.11471 3.4478C4.6148 2.9477 5.29308 2.66675 6.00033 2.66675ZM6.00033 3.93341C5.62902 3.93341 5.27293 4.08091 5.01038 4.34347C4.74783 4.60602 4.60033 4.96211 4.60033 5.33341C4.60033 5.70472 4.74783 6.06081 5.01038 6.32336C5.27293 6.58592 5.62902 6.73342 6.00033 6.73342C6.37163 6.73342 6.72772 6.58592 6.99028 6.32336C7.25283 6.06081 7.40033 5.70472 7.40033 5.33341C7.40033 4.96211 7.25283 4.60602 6.99028 4.34347C6.72772 4.08091 6.37163 3.93341 6.00033 3.93341Z" fill="#F16C31"/>
</svg>
