<svg width="12" height="12" viewBox="0 0 12 12" fill="none" xmlns="http://www.w3.org/2000/svg">
<path d="M6.83516 10.9999H6.80516C6.69511 10.9933 6.59034 10.9505 6.50715 10.8781C6.42396 10.8058 6.36701 10.708 6.34516 10.5999L5.57516 6.81491C5.55556 6.71882 5.50814 6.63061 5.4388 6.56127C5.36945 6.49193 5.28125 6.4445 5.18516 6.42491L1.40016 5.65491C1.29189 5.63341 1.19379 5.57668 1.12114 5.49358C1.04848 5.41049 1.00537 5.30568 0.998523 5.19551C0.991673 5.08535 1.02147 4.97601 1.08327 4.88455C1.14507 4.79309 1.23539 4.72466 1.34016 4.68991L9.34016 2.02491C9.42996 1.98783 9.52861 1.97772 9.62407 1.9958C9.71952 2.01389 9.80764 2.05939 9.87765 2.12675C9.94766 2.19411 9.99653 2.2804 10.0183 2.37509C10.04 2.46977 10.0337 2.56875 10.0002 2.65991L7.33516 10.6599C7.30037 10.7634 7.23266 10.8527 7.14237 10.9141C7.05209 10.9754 6.94419 11.0056 6.83516 10.9999Z" fill="white"/>
</svg>
